<svg width="390" height="160" viewBox="0 0 390 160" fill="none" xmlns="http://www.w3.org/2000/svg">
<path d="M202.492 72.8131H179.089V136.275H160.291V72.8131H137.317V58.2999H202.492V72.8131ZM196.226 106.766C196.226 100.983 197.351 95.8413 199.6 91.3428C201.849 86.8085 205.08 83.3275 209.293 80.8997C213.506 78.472 218.451 77.2581 224.128 77.2581C232.804 77.2581 239.641 79.9536 244.639 85.3447C249.637 90.7001 252.137 98.0013 252.137 107.248V107.891C252.137 116.924 249.62 124.1 244.585 129.42C239.587 134.704 232.804 137.346 224.235 137.346C215.988 137.346 209.365 134.882 204.366 129.955C199.368 124.993 196.672 118.28 196.28 109.819L196.226 106.766ZM214.274 107.891C214.274 113.246 215.113 117.174 216.791 119.673C218.469 122.172 220.95 123.422 224.235 123.422C230.661 123.422 233.946 118.477 234.089 108.587V106.766C234.089 96.3769 230.768 91.1821 224.128 91.1821C218.094 91.1821 214.827 95.6628 214.327 104.624L214.274 107.891ZM282.395 110.997L292.034 78.3291H311.367L287.75 145.968L286.733 148.431C283.376 155.929 277.45 159.678 268.953 159.678C266.596 159.678 264.115 159.321 261.509 158.607V145.7H263.865C266.4 145.7 268.328 145.325 269.649 144.576C271.005 143.861 272.005 142.558 272.648 140.666L274.094 136.81L253.957 78.3291H273.237L282.395 110.997ZM343.393 137.346C334.503 137.346 327.309 134.704 321.81 129.42C316.312 124.1 313.563 117.192 313.563 108.694V107.195C313.563 101.268 314.652 96.0377 316.83 91.5034C319.043 86.9692 322.257 83.4703 326.47 81.0068C330.683 78.5077 335.681 77.2581 341.465 77.2581C349.605 77.2581 356.031 79.793 360.744 84.8627C365.457 89.8968 367.813 96.9303 367.813 105.963V112.979H331.932C332.575 116.228 333.985 118.78 336.163 120.637C338.341 122.493 341.161 123.422 344.624 123.422C350.337 123.422 354.8 121.422 358.013 117.424L366.26 127.17C364.011 130.277 360.816 132.758 356.674 134.614C352.568 136.435 348.141 137.346 343.393 137.346ZM341.358 91.1821C336.074 91.1821 332.932 94.681 331.932 101.679H350.141V100.286C350.212 97.3944 349.48 95.163 347.945 93.5921C346.41 91.9854 344.214 91.1821 341.358 91.1821Z" fill="url(#paint0_linear)"/>
<g clip-path="url(#clip0)">
<path d="M105.203 26.2437C104.737 25.3974 104.737 24.3252 105.203 23.4786L110.501 13.85C111.274 12.4444 111.195 10.6168 110.241 9.29101C109.567 8.35282 108.525 7.85089 107.456 7.85089H77.4673C75.5501 7.85089 73.9958 9.60844 73.9958 11.7763V37.946C73.9958 40.1139 75.5501 41.8714 77.4673 41.8714H107.456C108.525 41.8714 109.567 41.3695 110.241 40.431C111.194 39.1055 111.274 37.2776 110.501 35.872L105.203 26.2437Z" fill="#F57A21"/>
<path d="M2.31854 133.989H61.7399C63.627 133.989 64.7207 131.572 63.617 129.841L33.9065 83.2448C32.9828 81.7963 31.0756 81.7963 30.1519 83.2448L0.441165 129.841C-0.662535 131.572 0.431445 133.989 2.31854 133.989Z" fill="#004263"/>
<path d="M63.6172 129.841L33.9064 83.2448C33.4445 82.5204 32.737 82.1582 32.0293 82.1582V133.988H61.7401C63.6269 133.988 64.7207 131.572 63.6172 129.841Z" fill="#003752"/>
<path d="M75.1526 69.8729C73.2355 69.8729 71.6812 68.1154 71.6812 65.9475V3.92544C71.6812 1.75755 73.2355 0 75.1526 0C77.0698 0 78.6241 1.75755 78.6241 3.92544V65.9475C78.6241 68.1154 77.0701 69.8729 75.1526 69.8729Z" fill="#FBCF82"/>
<path d="M75.1528 0V69.8729C77.07 69.8729 78.6243 68.1154 78.6243 65.9475V3.92544C78.6241 1.75755 77.07 0 75.1528 0Z" fill="#FDB43A"/>
<path d="M118.069 129.868L92.7955 89.1426L75.1527 83.9087L57.5099 89.1426L32.2364 129.868C31.1603 131.603 32.2572 133.988 34.1309 133.988H116.175C118.048 133.988 119.145 131.603 118.069 129.868Z" fill="#205E7D"/>
<path d="M118.069 129.868L92.7953 89.1426L75.1526 83.9087V133.988H116.175C118.048 133.988 119.145 131.603 118.069 129.868Z" fill="#004669"/>
<path d="M76.7294 89.514L83.0116 96.1321C83.9003 97.0684 85.278 97.0684 86.1667 96.1321L92.798 89.1463L77.0474 63.766C76.1258 62.2811 74.1802 62.2811 73.2586 63.766L57.5081 89.1463L64.1381 96.1315C65.0268 97.0679 66.4048 97.0679 67.2935 96.1315L73.5745 89.5138C74.4628 88.5777 75.8405 88.5777 76.7294 89.514Z" fill="#EFEFF9"/>
<path d="M77.0471 63.7662C76.5863 63.0238 75.8696 62.6525 75.1526 62.6525V88.8119C75.7189 88.8121 76.285 89.0461 76.7291 89.514L83.0113 96.1321C83.9 97.0684 85.2777 97.0684 86.1664 96.1321L92.7977 89.1463L77.0471 63.7662Z" fill="#D5D4F9"/>
</g>
<defs>
<linearGradient id="paint0_linear" x1="262.694" y1="34.2747" x2="262.694" y2="134.813" gradientUnits="userSpaceOnUse">
<stop offset="0.420744" stop-color="#004669"/>
<stop offset="1" stop-color="#002B40"/>
</linearGradient>
<clipPath id="clip0">
<rect width="118.493" height="133.988" fill="white"/>
</clipPath>
</defs>
</svg>
