<svg width="119" height="134" viewBox="0 0 119 134" fill="none" xmlns="http://www.w3.org/2000/svg">
<g clip-path="url(#clip0)">
<path d="M105.203 26.2437C104.737 25.3974 104.737 24.3252 105.203 23.4786L110.501 13.85C111.274 12.4444 111.195 10.6168 110.241 9.29101C109.567 8.35282 108.525 7.85089 107.456 7.85089H77.4673C75.5501 7.85089 73.9958 9.60844 73.9958 11.7763V37.946C73.9958 40.1139 75.5501 41.8714 77.4673 41.8714H107.456C108.525 41.8714 109.567 41.3695 110.241 40.431C111.194 39.1055 111.274 37.2776 110.501 35.872L105.203 26.2437Z" fill="#F57A21"/>
<path d="M2.31854 133.989H61.7399C63.627 133.989 64.7207 131.572 63.617 129.841L33.9065 83.2448C32.9828 81.7963 31.0756 81.7963 30.1519 83.2448L0.441165 129.841C-0.662535 131.572 0.431445 133.989 2.31854 133.989Z" fill="#004263"/>
<path d="M63.6172 129.841L33.9064 83.2448C33.4445 82.5204 32.737 82.1582 32.0293 82.1582V133.988H61.7401C63.6269 133.988 64.7207 131.572 63.6172 129.841Z" fill="#003752"/>
<path d="M75.1526 69.8729C73.2355 69.8729 71.6812 68.1154 71.6812 65.9475V3.92544C71.6812 1.75755 73.2355 0 75.1526 0C77.0698 0 78.6241 1.75755 78.6241 3.92544V65.9475C78.6241 68.1154 77.0701 69.8729 75.1526 69.8729Z" fill="#FBCF82"/>
<path d="M75.1528 0V69.8729C77.07 69.8729 78.6243 68.1154 78.6243 65.9475V3.92544C78.6241 1.75755 77.07 0 75.1528 0Z" fill="#FDB43A"/>
<path d="M118.069 129.868L92.7955 89.1426L75.1527 83.9087L57.5099 89.1426L32.2364 129.868C31.1603 131.603 32.2572 133.988 34.1309 133.988H116.175C118.048 133.988 119.145 131.603 118.069 129.868Z" fill="#205E7D"/>
<path d="M118.069 129.868L92.7953 89.1426L75.1526 83.9087V133.988H116.175C118.048 133.988 119.145 131.603 118.069 129.868Z" fill="#004669"/>
<path d="M76.7294 89.514L83.0116 96.1321C83.9003 97.0684 85.278 97.0684 86.1667 96.1321L92.798 89.1463L77.0474 63.766C76.1258 62.2811 74.1802 62.2811 73.2586 63.766L57.5081 89.1463L64.1381 96.1315C65.0268 97.0679 66.4048 97.0679 67.2935 96.1315L73.5745 89.5138C74.4628 88.5777 75.8405 88.5777 76.7294 89.514Z" fill="#EFEFF9"/>
<path d="M77.0471 63.7662C76.5863 63.0238 75.8696 62.6525 75.1526 62.6525V88.8119C75.7189 88.8121 76.285 89.0461 76.7291 89.514L83.0113 96.1321C83.9 97.0684 85.2777 97.0684 86.1664 96.1321L92.7977 89.1463L77.0471 63.7662Z" fill="#D5D4F9"/>
</g>
<defs>
<clipPath id="clip0">
<rect width="118.493" height="133.988" fill="white"/>
</clipPath>
</defs>
</svg>
