<svg width="57" height="57" viewBox="0 0 57 57" fill="none" xmlns="http://www.w3.org/2000/svg">
<path d="M31.6446 0.652466C31.0964 0.652466 30.6509 1.09797 30.6509 1.64697C30.6509 1.69797 30.6726 1.74222 30.6801 1.79172H30.6509V25.3702C30.6509 25.9192 31.0964 26.3647 31.6446 26.3647H55.2224V26.3355C55.2719 26.343 55.3161 26.3647 55.3679 26.3647C55.9161 26.3647 56.3616 25.9192 56.3616 25.3702C56.2206 11.7802 45.2346 0.794216 31.6446 0.652466Z" fill="#004669"/>
<path d="M27.9446 31.6004H27.9457H49.1125C48.9833 44.4611 38.5172 54.8474 25.6259 54.8474C12.6544 54.8474 2.13818 44.3313 2.13818 31.3597C2.13818 18.8025 11.9933 8.54628 24.3907 7.90388V7.98534L25.343 7.9239L25.1783 9.0112H25.4519V29.1059C25.4519 29.7672 25.7145 30.4014 26.1819 30.8692C26.6493 31.3369 27.2833 31.5999 27.9446 31.6004Z" stroke="#004669" stroke-width="3"/>
</svg>
