<svg width="52" height="46" viewBox="0 0 52 46" fill="none" xmlns="http://www.w3.org/2000/svg">
<path d="M3.06856 32.9053L11.6963 24.2775H34.346C35.6222 24.2775 36.8462 23.7705 37.7486 22.8681C38.651 21.9657 39.1579 20.7418 39.1579 19.4656V7.43577C39.1579 6.15957 38.651 4.93564 37.7486 4.03323C36.8462 3.13082 35.6222 2.62385 34.346 2.62385H7.88047C6.60427 2.62385 5.38034 3.13082 4.47793 4.03323C3.57552 4.93564 3.06856 6.15957 3.06856 7.43577V32.9053ZM3.06856 36.3073H0.662598V7.43577C0.662598 5.52147 1.42305 3.68558 2.77666 2.33196C4.13028 0.978348 5.96617 0.217896 7.88047 0.217896H34.346C36.2603 0.217896 38.0962 0.978348 39.4498 2.33196C40.8034 3.68558 41.5639 5.52147 41.5639 7.43577V19.4656C41.5639 21.3799 40.8034 23.2158 39.4498 24.5694C38.0962 25.923 36.2603 26.6834 34.346 26.6834H12.6924L3.06856 36.3073ZM48.7818 42.5291V17.0596C48.7818 15.7834 48.2748 14.5595 47.3724 13.6571C46.47 12.7547 45.2461 12.2477 43.9699 12.2477V9.84173C45.8842 9.84173 47.7201 10.6022 49.0737 11.9558C50.4273 13.3094 51.1877 15.1453 51.1877 17.0596V45.9311H48.7818L39.1579 36.3073H17.5043C16.0884 36.3076 14.7038 35.8915 13.5226 35.1108C12.3415 34.33 11.416 33.2191 10.8615 31.9164L12.779 29.9989C12.9904 31.0971 13.5777 32.0874 14.4401 32.7996C15.3024 33.5118 16.3859 33.9013 17.5043 33.9013H40.154L48.7818 42.5291Z" fill="#004669"/>
<path d="M3.06856 32.9053L11.6963 24.2775H34.346C35.6222 24.2775 36.8462 23.7705 37.7486 22.8681C38.651 21.9657 39.1579 20.7418 39.1579 19.4656V7.43577C39.1579 6.15957 38.651 4.93564 37.7486 4.03323C36.8462 3.13082 35.6222 2.62385 34.346 2.62385H7.88047C6.60427 2.62385 5.38034 3.13082 4.47793 4.03323C3.57552 4.93564 3.06856 6.15957 3.06856 7.43577V32.9053Z" fill="#004669"/>
</svg>
