<svg width="374" height="204" viewBox="0 0 374 204" fill="none" xmlns="http://www.w3.org/2000/svg">
<path d="M41.2356 46.6071V69.3841H56.3074V89.1975H41.2356V131.111C41.2356 134.554 41.8566 136.953 43.0984 138.308C44.3403 139.662 46.7958 140.34 50.465 140.34C53.2874 140.34 55.6582 140.171 57.5775 139.832V160.238C52.4407 161.875 47.078 162.693 41.4896 162.693C31.6676 162.693 24.414 160.379 19.7287 155.75C15.0435 151.122 12.7009 144.094 12.7009 134.667V89.1975H1.01607V69.3841H12.7009V46.6071H41.2356ZM233.781 121.034L249.023 69.3841H279.589L242.249 176.326L240.64 180.221C235.334 192.075 225.963 198.002 212.529 198.002C208.803 198.002 204.88 197.438 200.759 196.309V175.902H204.485C208.493 175.902 211.541 175.31 213.629 174.124C215.774 172.995 217.355 170.935 218.371 167.943L220.657 161.847L188.82 69.3841H219.302L233.781 121.034ZM330.224 162.693C316.168 162.693 304.794 158.516 296.101 150.162C287.408 141.751 283.061 130.828 283.061 117.394V115.023C283.061 105.652 284.783 97.3825 288.226 90.2136C291.726 83.0446 296.806 77.5127 303.467 73.6177C310.128 69.6663 318.031 67.6906 327.175 67.6906C340.046 67.6906 350.206 71.6985 357.658 79.7142C365.109 87.6734 368.834 98.7938 368.834 113.075V124.167H312.104C313.12 129.304 315.35 133.34 318.793 136.276C322.236 139.211 326.696 140.679 332.171 140.679C341.203 140.679 348.259 137.517 353.339 131.195L366.379 146.606C362.823 151.517 357.771 155.44 351.223 158.375C344.731 161.254 337.731 162.693 330.224 162.693ZM327.006 89.7056C318.652 89.7056 313.684 95.2375 312.104 106.301H340.892V104.1C341.005 99.5276 339.848 95.9996 337.421 93.5158C334.994 90.9756 331.522 89.7056 327.006 89.7056Z" fill="#004669"/>
<path d="M130.359 51.0283C129.31 51.0293 128.459 51.8823 128.46 52.9325C128.46 53.0301 128.501 53.1147 128.516 53.2094L128.46 53.2094L128.501 98.3153C128.502 99.3655 129.355 100.217 130.403 100.216L175.508 100.175L175.508 100.119C175.602 100.134 175.687 100.175 175.786 100.175C176.835 100.174 177.686 99.3212 177.685 98.271C177.392 72.2734 156.357 51.2761 130.359 51.0283V51.0283Z" fill="#FDB43A"/>
<path d="M172.305 108.847C172.306 107.707 171.369 106.781 170.212 106.78L124.52 106.74C123.965 106.739 123.432 106.52 123.04 106.133C122.647 105.745 122.427 105.22 122.427 104.673L122.467 59.8321L122.405 59.8321C122.421 59.7293 122.467 59.6375 122.467 59.5316C122.468 58.39 121.53 57.4657 120.372 57.4647C120.322 57.4647 120.281 57.4895 120.232 57.4926L120.232 57.4786C120.045 57.4769 119.86 57.4642 119.674 57.4641C90.5819 57.4385 66.9766 80.6486 66.9514 109.304C66.9262 137.959 90.4905 161.21 119.582 161.236C148.674 161.262 172.279 138.051 172.304 109.396C172.305 109.231 172.297 109.068 172.294 108.901C172.294 108.881 172.305 108.865 172.305 108.847Z" fill="#004669"/>
</svg>
