<svg width="97" height="97" viewBox="0 0 97 97" fill="none" xmlns="http://www.w3.org/2000/svg">
<g clip-path="url(#clip0)">
<path d="M85.5933 18.8827C85.2144 18.2737 85.2144 17.5023 85.5933 16.8931L89.9039 9.96525C90.5334 8.95393 90.4684 7.63888 89.6928 6.68498C89.1439 6.00995 88.2964 5.6488 87.4263 5.6488H63.0278C61.468 5.6488 60.2034 6.91338 60.2034 8.47321V27.3026C60.2034 28.8624 61.468 30.127 63.0278 30.127H87.4263C88.2964 30.127 89.1439 29.7659 89.6928 29.0906C90.4682 28.1369 90.5334 26.8217 89.9039 25.8104L85.5933 18.8827Z" fill="#F57A21"/>
<path d="M1.88637 96.4065H50.2318C51.7671 96.4065 52.657 94.6678 51.759 93.4224L27.5864 59.8957C26.8349 58.8535 25.2832 58.8535 24.5317 59.8957L0.358933 93.4224C-0.53904 94.6678 0.351025 96.4065 1.88637 96.4065V96.4065Z" fill="#004263"/>
<path d="M51.7594 93.4223L27.5866 59.8957C27.2107 59.3745 26.6351 59.1139 26.0593 59.1139V96.4064H50.2321C51.7673 96.4064 52.6572 94.6677 51.7594 93.4223Z" fill="#003752"/>
<path d="M61.1445 50.2744C59.5846 50.2744 58.3201 49.0099 58.3201 47.45V2.82441C58.3201 1.26458 59.5846 0 61.1445 0C62.7043 0 63.9689 1.26458 63.9689 2.82441V47.45C63.9689 49.0099 62.7045 50.2744 61.1445 50.2744Z" fill="#FBCF82"/>
<path d="M61.1445 0V50.2744C62.7044 50.2744 63.9689 49.0099 63.9689 47.45V2.82441C63.9688 1.26458 62.7044 0 61.1445 0Z" fill="#FDB43A"/>
<path d="M96.0615 93.4419L75.4987 64.1392L61.1445 60.3734L46.7903 64.1392L26.2277 93.4419C25.3521 94.6897 26.2447 96.4064 27.7691 96.4064H94.5204C96.0446 96.4064 96.9371 94.6897 96.0615 93.4419V93.4419Z" fill="#205E7D"/>
<path d="M96.0613 93.4419L75.4985 64.1392L61.1443 60.3734V96.4064H94.5199C96.0444 96.4064 96.9369 94.6897 96.0613 93.4419V93.4419Z" fill="#004669"/>
<path d="M62.4274 64.4065L67.5386 69.1683C68.2617 69.842 69.3826 69.842 70.1056 69.1683L75.5008 64.1419L62.6861 45.8804C61.9363 44.8121 60.3533 44.8121 59.6035 45.8804L46.7888 64.1419L52.1831 69.1679C52.9061 69.8416 54.0272 69.8416 54.7503 69.1679L59.8605 64.4063C60.5832 63.7328 61.7041 63.7328 62.4274 64.4065V64.4065Z" fill="#EFEFF9"/>
<path d="M62.6857 45.8806C62.3108 45.3464 61.7276 45.0792 61.1443 45.0792V63.9013C61.605 63.9015 62.0656 64.0698 62.4269 64.4065L67.5382 69.1682C68.2612 69.8419 69.3821 69.8419 70.1052 69.1682L75.5004 64.1419L62.6857 45.8806Z" fill="#D5D4F9"/>
</g>
<defs>
<clipPath id="clip0">
<rect width="96.4064" height="96.4064" fill="white"/>
</clipPath>
</defs>
</svg>
