<svg width="150" height="155" viewBox="0 0 150 155" fill="none" xmlns="http://www.w3.org/2000/svg">
<path d="M85.3591 23.0283C84.3103 23.0293 83.4588 23.8823 83.4597 24.9325C83.4598 25.0301 83.5015 25.1147 83.5159 25.2094L83.46 25.2094L83.5006 70.3153C83.5015 71.3655 84.3546 72.217 85.4034 72.216L130.508 72.1754L130.508 72.1195C130.602 72.1337 130.687 72.1753 130.786 72.1752C131.835 72.1742 132.686 71.3212 132.685 70.271C132.392 44.2734 111.357 23.2761 85.3591 23.0283V23.0283Z" fill="#FDB43A"/>
<path d="M127.305 80.8466C127.306 79.7067 126.369 78.7808 125.212 78.7798L79.5204 78.7396C78.9647 78.7387 78.432 78.5204 78.0395 78.1329C77.6471 77.7453 77.4268 77.2201 77.4273 76.6727L77.4668 31.8321L77.4051 31.8321C77.421 31.7293 77.467 31.6375 77.4671 31.5316C77.4681 30.39 76.5297 29.4657 75.3724 29.4647C75.3218 29.4647 75.2807 29.4895 75.2316 29.4926L75.2316 29.4786C75.0451 29.4769 74.8601 29.4642 74.6735 29.4641C45.5819 29.4385 21.9766 52.6486 21.9514 81.3037C21.9262 109.959 45.4905 133.21 74.5822 133.236C103.674 133.262 127.279 110.051 127.304 81.3964C127.305 81.2313 127.297 81.0678 127.294 80.9011C127.294 80.8809 127.305 80.8653 127.305 80.8466Z" fill="#004669"/>
</svg>
