<svg width="57" height="57" viewBox="0 0 57 57" fill="none" xmlns="http://www.w3.org/2000/svg">
<path d="M56.8033 8.42381C56.7563 8.26248 56.6664 8.11671 56.5432 8.00177C56.42 7.88684 56.2679 7.80697 56.1029 7.77056L50.3239 6.47318L49.0183 0.73054C48.9812 0.567003 48.9006 0.41636 48.785 0.294337C48.6693 0.172315 48.5228 0.0833854 48.3607 0.0368326C48.1986 -0.00972022 48.027 -0.0121897 47.8636 0.0296821C47.7003 0.0715539 47.5512 0.156231 47.432 0.274876L40.7856 6.88065C35.1613 3.50811 28.4892 2.2979 22.0286 3.47841C15.5679 4.65893 9.76554 8.14851 5.71641 13.2886C1.66728 18.4287 -0.348519 24.8639 0.0494195 31.3796C0.447358 37.8953 3.23151 44.0409 7.87647 48.6567C12.5214 53.2725 18.7059 56.0392 25.2628 56.4346C31.8197 56.8301 38.2955 54.8269 43.4681 50.8032C48.6407 46.7795 52.1523 41.0136 53.3403 34.5935C54.5283 28.1734 53.3104 21.5433 49.9166 15.9543L56.5657 9.34691C56.6847 9.22819 56.7695 9.07994 56.8113 8.91759C56.8531 8.75524 56.8504 8.58473 56.8033 8.42381ZM51.8968 29.7639C51.896 35.2344 50.0786 40.5517 46.7264 44.891C43.3743 49.2303 38.6748 52.3491 33.3569 53.7635C28.0391 55.1779 22.4002 54.8088 17.3149 52.7136C12.2297 50.6184 7.98235 46.9141 5.23182 42.1754C2.4813 37.4368 1.38133 31.9285 2.10254 26.5052C2.82375 21.0819 5.32582 16.0467 9.22063 12.1807C13.1154 8.31462 18.1853 5.83386 23.6436 5.12323C29.102 4.41259 34.6438 5.51179 39.4094 8.25032L36.357 11.2836C36.3307 11.3133 36.3064 11.3446 36.2842 11.3773C31.8767 9.14751 26.8134 8.55302 22.0043 9.70073C17.1952 10.8484 12.9557 13.663 10.048 17.6387C7.14017 21.6143 5.75474 26.4902 6.14067 31.39C6.52661 36.2898 8.65861 40.8921 12.1535 44.3697C15.6483 47.8474 20.2768 49.9722 25.207 50.3624C30.1373 50.7526 35.0459 49.3825 39.0506 46.4984C43.0553 43.6143 45.8934 39.4053 47.0549 34.628C48.2164 29.8506 47.6251 24.8183 45.3872 20.4354C45.4218 20.4111 45.4548 20.3844 45.4858 20.3556L48.5382 17.3224C50.7426 21.1025 51.9013 25.395 51.8968 29.7639ZM43.1494 20.2791C45.4651 24.2074 46.2609 28.8398 45.3878 33.3091C44.5147 37.7784 42.0326 41.7784 38.406 44.5604C34.7794 47.3424 30.2568 48.7158 25.6847 48.4236C21.1127 48.1314 16.8045 46.1935 13.5664 42.9727C10.3283 39.7518 8.38236 35.4688 8.09267 30.9252C7.80297 26.3816 9.18942 21.8887 11.9925 18.2876C14.7956 14.6864 18.8233 12.2237 23.3217 11.3604C27.8201 10.4971 32.4809 11.2923 36.4319 13.5973L37.4249 17.9686L36.4723 18.9153C33.6313 16.4363 29.9316 15.1523 26.1553 15.3348C22.379 15.5173 18.8221 17.152 16.2367 19.8933C13.6513 22.6346 12.24 26.2676 12.3012 30.0241C12.3625 33.7807 13.8914 37.3663 16.5648 40.0229C19.2383 42.6796 22.8466 44.1989 26.6269 44.2598C30.4071 44.3206 34.0631 42.9182 36.8217 40.349C39.5803 37.7799 41.2254 34.2453 41.409 30.4927C41.5927 26.7401 40.3006 23.0636 37.8059 20.2405L38.7585 19.2939L43.1494 20.2791ZM30.9433 29.7639C30.9467 30.6597 30.6507 31.5312 30.1017 32.2417C29.5528 32.9522 28.782 33.4615 27.9103 33.6897C27.0387 33.9179 26.1154 33.852 25.2855 33.5025C24.4555 33.1529 23.7658 32.5395 23.3246 31.7583C22.8834 30.9772 22.7157 30.0726 22.8477 29.1866C22.9797 28.3005 23.4041 27.483 24.0541 26.8624C24.7042 26.2419 25.5431 25.8533 26.4394 25.7578C27.3357 25.6622 28.2385 25.865 29.0063 26.3344L26.2216 29.1016C26.1315 29.1881 26.0597 29.2915 26.0103 29.4058C25.9609 29.5201 25.935 29.6431 25.9339 29.7675C25.9328 29.8919 25.9567 30.0153 26.0042 30.1305C26.0516 30.2456 26.1216 30.3502 26.2102 30.4382C26.2987 30.5261 26.404 30.5957 26.5199 30.6428C26.6358 30.6899 26.76 30.7136 26.8852 30.7125C27.0104 30.7113 27.1341 30.6855 27.2492 30.6363C27.3642 30.5872 27.4682 30.5158 27.5552 30.4263L30.3399 27.6591C30.7341 28.2913 30.9431 29.0202 30.9433 29.7639ZM30.3636 24.9856C29.1487 24.1112 27.6468 23.7237 26.1573 23.9004C24.6678 24.0772 23.2999 24.8052 22.3264 25.9393C21.3529 27.0734 20.8451 28.5304 20.9043 30.02C20.9635 31.5095 21.5854 32.9222 22.6459 33.9764C23.7064 35.0307 25.1277 35.6492 26.6267 35.7087C28.1256 35.7681 29.592 35.2641 30.7337 34.2972C31.8754 33.3302 32.6085 31.9713 32.787 30.4912C32.9654 29.0111 32.5761 27.5185 31.6966 26.3109L36.4696 21.5679C38.6082 24.0368 39.7004 27.2335 39.5167 30.4859C39.3329 33.7384 37.8876 36.7935 35.4844 39.0091C33.0812 41.2247 29.9073 42.4284 26.6297 42.3671C23.3521 42.3057 20.226 40.9842 17.9084 38.6803C15.5909 36.3764 14.2623 33.2694 14.2019 30.0123C14.1415 26.7553 15.3541 23.6018 17.5847 21.2146C19.8152 18.8274 22.8902 17.3924 26.1633 17.2111C29.4364 17.0299 32.6528 18.1165 35.1365 20.2427L30.3636 24.9856ZM48.0608 15.1463L44.5218 18.6626L43.9911 18.5437L43.9706 18.5389L39.2478 17.4825L38.0575 12.2442L47.5581 2.80164L48.618 7.46322C48.643 7.57315 48.6876 7.67717 48.7492 7.77056C48.7845 7.82399 48.8253 7.87394 48.8711 7.91953C48.9972 8.04481 49.1564 8.13202 49.3303 8.17107L54.0214 9.22429L48.0608 15.1463Z" fill="#004669"/>
<path d="M44.5218 18.6626L48.0608 15.1463L54.0214 9.22429L49.3303 8.17107C49.1564 8.13202 48.9972 8.04481 48.8711 7.91953C48.8253 7.87394 48.7845 7.82399 48.7492 7.77056C48.6876 7.67717 48.643 7.57315 48.618 7.46322L47.5581 2.80164L38.0575 12.2442L39.2478 17.4825L43.9706 18.5389L43.9911 18.5437L44.5218 18.6626Z" fill="#004669"/>
</svg>
